<svg xmlns="http://www.w3.org/2000/svg" viewBox="0 0 64 64" role="img" aria-label="Packing Demo favicon">
  <defs>
    <linearGradient id="bag" x1="0" x2="1" y1="0" y2="1">
      <stop offset="0%" stop-color="#f17c45" />
      <stop offset="100%" stop-color="#c44b1f" />
    </linearGradient>
    <linearGradient id="tag" x1="0" x2="1" y1="0" y2="1">
      <stop offset="0%" stop-color="#1d9a8c" />
      <stop offset="100%" stop-color="#126d64" />
    </linearGradient>
  </defs>
  <rect width="64" height="64" rx="16" fill="#f6ecdd" />
  <path
    d="M21 19.5C21 13.7 25.7 9 31.5 9h1C38.3 9 43 13.7 43 19.5V22h4.5A7.5 7.5 0 0 1 55 29.5v17A8.5 8.5 0 0 1 46.5 55h-29A8.5 8.5 0 0 1 9 46.5v-17A7.5 7.5 0 0 1 16.5 22H21v-2.5Zm6 0V22h10v-2.5a4.5 4.5 0 0 0-4.5-4.5h-1a4.5 4.5 0 0 0-4.5 4.5Z"
    fill="url(#bag)"
  />
  <path d="M9 35h46v4H9z" fill="#f9d9b6" />
  <rect x="26" y="31" width="12" height="12" rx="3" fill="#fff8ef" />
  <path
    d="M45 16.5 51.5 23 42 32.5 35.5 26 45 16.5Zm-9.9 10.9 6.5 6.5-2.3 7.1a1 1 0 0 1-1.3.7l-6-2a1 1 0 0 1-.6-1.3l2-6a1 1 0 0 1 .7-.6l1-.4Z"
    fill="url(#tag)"
  />
</svg>
